<svg width="1200" height="360" viewBox="0 0 1200 360" fill="none" xmlns="http://www.w3.org/2000/svg">
  <defs>
    <linearGradient id="background" x1="0" y1="0" x2="1200" y2="360" gradientUnits="userSpaceOnUse">
      <stop stop-color="#0F172A"/>
      <stop offset="0.52" stop-color="#172554"/>
      <stop offset="1" stop-color="#0C4A6E"/>
    </linearGradient>
    <linearGradient id="accent" x1="286" y1="74" x2="914" y2="286" gradientUnits="userSpaceOnUse">
      <stop stop-color="#38BDF8"/>
      <stop offset="1" stop-color="#818CF8"/>
    </linearGradient>
    <filter id="glow" x="-50%" y="-50%" width="200%" height="200%">
      <feGaussianBlur stdDeviation="28"/>
    </filter>
    <pattern id="grid" width="40" height="40" patternUnits="userSpaceOnUse">
      <path d="M40 0H0V40" stroke="#FFFFFF" stroke-opacity="0.045"/>
    </pattern>
  </defs>

  <rect width="1200" height="360" rx="24" fill="url(#background)"/>
  <rect width="1200" height="360" rx="24" fill="url(#grid)"/>

  <circle cx="1050" cy="40" r="210" fill="#38BDF8" fill-opacity="0.12" filter="url(#glow)"/>
  <circle cx="135" cy="330" r="190" fill="#818CF8" fill-opacity="0.12" filter="url(#glow)"/>

  <g opacity="0.55">
    <path d="M72 80L112 120L72 160" stroke="#38BDF8" stroke-width="8" stroke-linecap="round" stroke-linejoin="round"/>
    <path d="M168 80L128 160" stroke="#818CF8" stroke-width="8" stroke-linecap="round"/>
  </g>

  <text x="600" y="146" text-anchor="middle" fill="white" font-family="Arial, Helvetica, sans-serif" font-size="54" font-weight="700" letter-spacing="1">
    DENIS MARIGA KAMARA
  </text>
  <rect x="350" y="174" width="500" height="4" rx="2" fill="url(#accent)"/>
  <text x="600" y="230" text-anchor="middle" fill="#CBD5E1" font-family="Arial, Helvetica, sans-serif" font-size="25" letter-spacing="5">
    SOFTWARE DEVELOPER
  </text>
  <text x="600" y="278" text-anchor="middle" fill="#7DD3FC" font-family="Arial, Helvetica, sans-serif" font-size="18" letter-spacing="2">
    NAIROBI • KENYA
  </text>

  <g opacity="0.5">
    <circle cx="1080" cy="280" r="5" fill="#38BDF8"/>
    <circle cx="1110" cy="280" r="5" fill="#818CF8"/>
    <circle cx="1140" cy="280" r="5" fill="#A5B4FC"/>
  </g>
</svg>
